{"title":"Freedomland (2006) - DvDrip (NLSubs) - ACB-Team","uid":6197178,"size":969588835,"categoryP":"video","categoryS":"movies","magnet":"?xt=urn:btih:ce77595aabbc0576139d10c0f4f5b86013c75ada&amp;dn=Freedomland+%282006%29+-+DvDrip+%28NLSubs%29+-+ACB-Team&amp;tr=udp%3A%2F%2Ftracker.openbittorrent.com%3A80&amp;tr=udp%3A%2F%2Fopen.demonii.com%3A1337&amp;tr=udp%3A%2F%2Ftracker.coppersurfer.tk%3A6969&amp;tr=udp%3A%2F%2Fexodus.desync.com%3A6969","seeders":0,"leechers":1,"uploader":"JornNL","files":-1,"time":1298481202,"description":"MOVIE INFO:\nKijkwijzer: Grof taalgebruik, Geweld, Afgeraden voor kinderen jonger dan 12 jaar\nRegie: \tJoe Roth\nCast: \tSamuel L. Jackson, Julianne Moore en Edie Falco\nGenre: \tMisdaad, Drama, Mystery\nLand: \tVerenigde Staten\nTijdsduur: \t112 minuten\nPlot:\nBrenda Martin (Moore) strompelt aangeslagen de Eerste Hulp in Dempsy, New Jersey binnen en beweert dat een zwarte man haar auto heeft gestolen met haar vier jaar oude zoon op de achterbank. Detective Lorenzo Council (Jackson) heeft zijn bedenkingen bij Brenda's verhaal, maar start toch een grootschalig onderzoek, waarbij hij hulp krijgt van een groep moeders die naar verdwenen kinderen zoeken. Gedurende het onderzoek nemen de spanningen tussen het voornamelijk 'zwarte' Dempsy en het overwegend 'blanke' buurstadje Gannon toe. \n\nMEDIA INFO:\nGeneral\nComplete name                    : Freedomland (2006) - DvDrip (NLSubs) - ACB-Team.avi\nFormat                           : AVI\nFormat/Info                      : Audio Video Interleave\nFile size                        : 924 MiB\nDuration                         : 1h 53mn\nOverall bit rate                 : 1 143 Kbps\nWriting application              : VirtualDubMod 1.5.4.1 (build 2178/release)\nWriting library                  : VirtualDubMod build 2178/release\n\nVideo\nID                               : 0\nFormat                           : MPEG-4 Visual\nFormat profile                   : Advanced Simple@L5\nFormat settings, BVOP            : 1\nFormat settings, QPel            : No\nFormat settings, GMC             : No warppoints\nFormat settings, Matrix          : Custom\nCodec ID                         : XVID\nCodec ID/Hint                    : XviD\nDuration                         : 1h 53mn\nBit rate                         : 1 040 Kbps\nWidth                            : 580 pixels\nHeight                           : 240 pixels\nDisplay aspect ratio             : 2.40:1\nFrame rate                       : 23.976 fps\nColor space                      : YUV\nChroma subsampling               : 4:2:0\nBit depth                        : 8 bits\nScan type                        : Progressive\nCompression mode                 : Lossy\nBits/(Pixel*Frame)               : 0.312\nStream size                      : 841 MiB (91%)\nWriting library                  : XviD 58\n\nAudio\nID                               : 1\nFormat                           : MPEG Audio\nFormat version                   : Version 1\nFormat profile                   : Layer 3\nCodec ID                         : 55\nCodec ID/Hint                    : MP3\nDuration                         : 1h 53mn\nBit rate mode                    : Constant\nBit rate                         : 96.0 Kbps\nChannel(s)                       : 2 channels\nSampling rate                    : 48.0 KHz\nCompression mode                 : Lossy\nStream size                      : 77.6 MiB (8%)\nAlignment                        : Aligned on interleaves\nInterleave, duration             : 83 ms (2.00 video frames)\nInterleave, preload duration     : 504 ms\n\n","torrent":{"xt":"urn:btih:ce77595aabbc0576139d10c0f4f5b86013c75ada","amp;dn":"Freedomland+%282006%29+-+DvDrip+%28NLSubs%29+-+ACB-Team","amp;tr":["udp%3A%2F%2Ftracker.openbittorrent.com%3A80","udp%3A%2F%2Fopen.demonii.com%3A1337","udp%3A%2F%2Ftracker.coppersurfer.tk%3A6969","udp%3A%2F%2Fexodus.desync.com%3A6969"],"infoHash":"ce77595aabbc0576139d10c0f4f5b86013c75ada","infoHashBuffer":{"type":"Buffer","data":[206,119,89,90,171,188,5,118,19,157,16,192,244,245,184,96,19,199,90,218]},"announce":[],"urlList":[]}}